<?xml version="1.0" encoding="UTF-8" standalone="no"?>
<!-- Created with Inkscape (http://www.inkscape.org/) -->

<svg
   xmlns:dc="http://purl.org/dc/elements/1.1/"
   xmlns:cc="http://creativecommons.org/ns#"
   xmlns:rdf="http://www.w3.org/1999/02/22-rdf-syntax-ns#"
   xmlns:svg="http://www.w3.org/2000/svg"
   xmlns="http://www.w3.org/2000/svg"
   xmlns:sodipodi="http://sodipodi.sourceforge.net/DTD/sodipodi-0.dtd"
   xmlns:inkscape="http://www.inkscape.org/namespaces/inkscape"
   width="300"
   height="300"
   viewBox="0 0 79.374998 79.375002"
   version="1.1"
   id="svg8"
   inkscape:version="0.92.3 (2405546, 2018-03-11)"
   sodipodi:docname="folder.svg">
  <defs
     id="defs2" />
  <sodipodi:namedview
     id="base"
     pagecolor="#ffffff"
     bordercolor="#666666"
     borderopacity="1.0"
     inkscape:pageopacity="0.0"
     inkscape:pageshadow="2"
     inkscape:zoom="0.7"
     inkscape:cx="364.50196"
     inkscape:cy="327.09534"
     inkscape:document-units="mm"
     inkscape:current-layer="layer1"
     showgrid="false"
     units="px"
     inkscape:window-width="1920"
     inkscape:window-height="1017"
     inkscape:window-x="-8"
     inkscape:window-y="-8"
     inkscape:window-maximized="1" />
  <metadata
     id="metadata5">
    <rdf:RDF>
      <cc:Work
         rdf:about="">
        <dc:format>image/svg+xml</dc:format>
        <dc:type
           rdf:resource="http://purl.org/dc/dcmitype/StillImage" />
        <dc:title></dc:title>
      </cc:Work>
    </rdf:RDF>
  </metadata>
  <g
     inkscape:label="Layer 1"
     inkscape:groupmode="layer"
     id="layer1"
     transform="translate(0,-217.62498)">
    <path
       style="fill:#000000;stroke-width:0.26458335"
       d="m 18.54032,288.70237 c -1.152011,-0.60067 -1.594474,-1.06433 -2.07149,-2.1707 -0.233421,-0.54139 -1.50952,-6.63982 -2.835774,-13.55206 -2.325078,-12.11796 -5.0009705,-25.37319 -6.6202145,-32.79374 -0.932709,-4.27434 -0.955308,-5.10361 -0.180924,-6.63926 0.96431,-1.91229 2.454648,-2.48505 8.2682295,-3.17761 2.619375,-0.31205 5.275848,-0.51018 5.903273,-0.44029 1.450776,0.1616 2.465123,0.90206 4.516868,3.29725 1.250871,1.46026 1.806019,1.91823 2.325255,1.91823 0.375145,0 6.650119,-0.90554 13.944385,-2.01232 7.294267,-1.10678 14.095741,-2.02286 15.114391,-2.03573 3.773,-0.0477 5.95312,2.21716 5.95312,6.18443 0,0.75522 0.13036,1.29512 0.33073,1.36971 0.1819,0.0677 1.60683,-0.0562 3.16651,-0.27546 2.62117,-0.36842 2.9256,-0.36428 4.02257,0.0546 1.46012,0.55762 2.70953,1.93043 2.96471,3.2575 0.13969,0.72644 -0.40957,4.62523 -2.0194,14.3343 -1.85132,11.16552 -2.30036,13.43638 -2.75851,13.95035 -0.74914,0.84039 -46.908122,19.14826 -48.271981,19.14595 -0.527223,-8e-4 -1.31551,-0.18774 -1.751748,-0.4152 z m 2.350205,-5.28776 c 0.194317,-0.50638 -0.25396,-3.56158 -1.958118,-13.34541 -2.51972,-14.46612 -2.604596,-15.45034 -1.546769,-17.93631 0.717465,-1.6861 2.887058,-3.83987 4.667132,-4.63308 1.057472,-0.47122 6.688797,-1.7184 18.674118,-4.13577 9.43804,-1.90361 17.266401,-3.52682 17.396351,-3.60713 0.12996,-0.0803 0.23628,-0.90441 0.23628,-1.83131 0,-1.22832 -0.12103,-1.80631 -0.44638,-2.13166 -0.54907,-0.54907 -0.3751,-0.56721 -12.782782,1.33308 -18.791118,2.87793 -18.834451,2.88133 -20.502153,1.60932 -0.5095,-0.38862 -1.595233,-1.53442 -2.412741,-2.54624 -1.352847,-1.67439 -1.572836,-1.83885 -2.448764,-1.83069 -1.932172,0.018 -8.511179,0.9517 -8.809761,1.25028 -0.23311,0.23311 0.797925,6.00044 4.278322,23.93175 2.521995,12.99355 4.698758,23.77346 4.837251,23.95536 0.339054,0.44533 0.626678,0.41643 0.818014,-0.0822 z m 24.636707,-8.681 c 10.477497,-4.16197 19.169057,-7.73014 19.314577,-7.92927 0.41268,-0.5647 4.18778,-23.74175 3.912,-24.01753 -0.33624,-0.33624 -9.42598,1.31837 -28.437806,5.17654 -18.01596,3.65608 -17.762104,3.5762 -18.796468,5.91455 -0.535173,1.20985 -0.537143,1.28735 -0.106035,4.17133 0.241599,1.61622 1.138922,6.91666 1.994051,11.77876 0.85513,4.86209 1.64129,9.61407 1.747024,10.55996 0.224618,2.00942 0.30998,2.20498 0.889496,2.03782 0.238238,-0.0687 9.00566,-3.53019 19.483161,-7.69216 z"
       id="path3724"
       inkscape:connector-curvature="0" />
  </g>
</svg>
